<svg xmlns="http://www.w3.org/2000/svg" width="76.492" height="79.859" viewBox="0 0 76.492 79.859">
    <defs>
        <linearGradient id="linear-gradient" x1=".697" x2="1.077" y1=".5" y2=".5" gradientUnits="objectBoundingBox">
            <stop offset="0" stop-color="#278735"/>
            <stop offset=".481" stop-color="#1a5e2f"/>
            <stop offset="1" stop-color="#0b3229"/>
        </linearGradient>
        <style>
            .cls-1{fill:#0b3229}.cls-2{fill:#278735}.cls-3{fill:url(#linear-gradient)}
        </style>
    </defs>
    <g id="Group_62" data-name="Group 62" transform="translate(1112.584 414.337)">
        
        <g id="Group_54" data-name="Group 54" transform="translate(-1112.584 -414.337)">
            <path id="Path_916" d="M357.1 353.259l-12.58 12.584h12.58z" class="cls-2" data-name="Path 916" transform="translate(-294.397 -325.277)"/>
            <path id="Path_917" d="M342.323 363.774l12.642-12.642h-12.642z" class="cls-2" data-name="Path 917" transform="translate(-292.779 -323.709)"/>
            <path id="Path_918" d="M357.1 300.352l-12.58 12.584h12.58z" class="cls-2" data-name="Path 918" transform="translate(-294.397 -286.289)"/>
            <path id="Path_919" d="M342.323 310.867l12.642-12.642h-12.642z" class="cls-2" data-name="Path 919" transform="translate(-292.779 -284.722)"/>
            <path id="Path_920" d="M357.1 416.692l-12.58-12.584h12.58z" class="cls-2" data-name="Path 920" transform="translate(-294.397 -362.747)"/>
            <path id="Path_921" d="M357.047 246.9l-12.584 12.584h12.584z" class="cls-2" data-name="Path 921" transform="translate(-294.355 -246.904)"/>
            <path id="Path_922" d="M257.991 416.586L270.575 404h-12.584z" class="cls-2" data-name="Path 922" transform="translate(-230.634 -362.669)"/>
            <path id="Path_923" d="M272.576 363.61l-12.584-12.584h12.584z" class="cls-2" data-name="Path 923" transform="translate(-232.109 -323.631)"/>
            <path id="Path_924" d="M207.037 299.133l12.584 12.584v-12.584z" class="cls-3" data-name="Path 924" transform="translate(-193.086 -285.391)"/>
            <path id="Path_926" d="M257.991 353l12.642 12.642h-12.642z" class="cls-2" data-name="Path 926" transform="translate(-230.634 -325.086)"/>
            <path id="Path_927" d="M257.991 300.113l12.584 12.587h-12.584z" class="cls-2" data-name="Path 927" transform="translate(-230.634 -286.113)"/>
            <path id="Path_928" d="M205.015 405.975l12.642 12.642h-12.642z" class="cls-2" data-name="Path 928" transform="translate(-191.597 -364.123)"/>
            <path id="Path_929" d="M166.656 416.644L154.014 404h12.642z" class="cls-2" data-name="Path 929" transform="translate(-154.014 -362.669)"/>
            <path id="Path_930" d="M205.015 363.669l12.642-12.642h-12.642z" class="cls-2" data-name="Path 930" transform="translate(-191.597 -323.631)"/>
            <path id="Path_931" d="M166.656 353l-12.642 12.642h12.642z" class="cls-2" data-name="Path 931" transform="translate(-154.014 -325.086)"/>
            <path id="Path_949" d="M0 0l12.584 12.584V0z" class="cls-3" data-name="Path 949" transform="rotate(180 38.246 27.109)"/>
        </g>
    </g>
</svg>
