<svg xmlns="http://www.w3.org/2000/svg" width="76.492" height="79.859" viewBox="0 0 76.492 79.859">
    <defs>
        <linearGradient id="linear-gradient" x1=".697" x2="1.077" y1=".5" y2=".5" gradientUnits="objectBoundingBox">
            <stop offset="0" stop-color="#278735"/>
            <stop offset=".481" stop-color="#1a5e2f"/>
            <stop offset="1" stop-color="#0b3229"/>
        </linearGradient>
        <style>
            .cls-1{fill:#0b3229}.cls-2{fill:#278735}.cls-3{fill:url(#linear-gradient)}
        </style>
    </defs>
    <g id="Group_62" data-name="Group 62" transform="translate(1112.584 414.337)">
        <path id="Path_903" d="M169.44 519.2a1.273 1.273 0 0 1-.961-1 2.132 2.132 0 0 1-1.866 1 1.94 1.94 0 0 1-2.05-1.918 2.046 2.046 0 0 1 2.05-2.02l1.711-.173v-.62c0-.794-.551-1.3-1.513-1.3a3.229 3.229 0 0 0-1.7.49l-.184-.764a3.43 3.43 0 0 1 1.923-.519 2.135 2.135 0 0 1 2.375 2.178v2.986a.991.991 0 0 0 .792 1.068zm-1.117-3.346l-1.569.144a1.3 1.3 0 0 0-1.329 1.284 1.163 1.163 0 0 0 1.216 1.139 1.731 1.731 0 0 0 1.683-1.688z" class="cls-1" data-name="Path 903" transform="translate(-1274.37 -856.871)"/>
        <path id="Path_904" d="M188.6 519.594h-.325l-2.7-6.664h.9l1.372 3.346c.212.534.438 1.1.608 1.659h.028c.184-.563.4-1.1.622-1.659l1.343-3.346h.848z" class="cls-1" data-name="Path 904" transform="translate(-1289.856 -857.275)"/>
        <path id="Path_905" d="M214.919 515.266l-.537.534H210.1a2.489 2.489 0 0 0 2.545 2.6 3.165 3.165 0 0 0 2.008-.649l-.255 1.01a3.5 3.5 0 0 1-1.852.447 3.331 3.331 0 0 1-3.379-3.4 3.248 3.248 0 0 1 3.1-3.419 2.5 2.5 0 0 1 2.686 2.438 2.24 2.24 0 0 1-.028.447m-2.616-2.092a2.323 2.323 0 0 0-2.135 1.876h3.874a.776.776 0 0 0 .014-.188 1.7 1.7 0 0 0-1.753-1.688" class="cls-1" data-name="Path 905" transform="translate(-1307.238 -856.87)"/>
        <path id="Path_906" d="M240.244 519.061v-4.313a1.56 1.56 0 0 0-1.767-1.573 1.632 1.632 0 0 0-1.824 1.573v4.313h-.891v-6.535h.806l.028.793a2.325 2.325 0 0 1 2.093-.937 2.238 2.238 0 0 1 2.446 2.279v4.4z" class="cls-1" data-name="Path 906" transform="translate(-1326.838 -856.871)"/>
        <path id="Path_907" d="M263.328 504.185c-.212 0-.594-.461-.594-.692s.382-.707.594-.707.608.462.608.707-.4.692-.608.692m-.452 1.27h.9v6.535h-.9z" class="cls-1" data-name="Path 907" transform="translate(-1346.713 -849.8)"/>
        <path id="Path_908" d="M277.852 509l-.028-.548a2.7 2.7 0 0 1-1.979.692 3.414 3.414 0 0 1 .141-6.823 3 3 0 0 1 1.753.534v-4.126h.9V509zm-.113-5.179a2.492 2.492 0 0 0-4.214 1.919 2.457 2.457 0 0 0 2.46 2.6 2.346 2.346 0 0 0 1.753-.707z" class="cls-1" data-name="Path 908" transform="translate(-1353.998 -846.81)"/>
        <path id="Path_909" d="M305.385 519.2a1.273 1.273 0 0 1-.961-1 2.132 2.132 0 0 1-1.866 1 1.94 1.94 0 0 1-2.05-1.918 2.046 2.046 0 0 1 2.05-2.02l1.711-.173v-.62c0-.794-.551-1.3-1.513-1.3a3.228 3.228 0 0 0-1.7.49l-.184-.764a3.429 3.429 0 0 1 1.923-.519 2.135 2.135 0 0 1 2.375 2.178v2.986a.991.991 0 0 0 .792 1.068zm-1.117-3.346L302.7 516a1.3 1.3 0 0 0-1.329 1.284 1.163 1.163 0 0 0 1.216 1.139 1.731 1.731 0 0 0 1.683-1.688z" class="cls-1" data-name="Path 909" transform="translate(-1374.548 -856.871)"/>
        <path id="Path_910" d="M339.76 509.216a1.573 1.573 0 0 1-1.1-1.644v-8.843h.891v8.742a1.1 1.1 0 0 0 .82 1.125z" class="cls-1" data-name="Path 910" transform="translate(-1402.661 -846.81)"/>
        <path id="Path_911" d="M351.771 504.185c-.212 0-.594-.461-.594-.692s.382-.707.594-.707.608.462.608.707-.4.692-.608.692m-.452 1.27h.9v6.535h-.9z" class="cls-1" data-name="Path 911" transform="translate(-1411.887 -849.8)"/>
        <path id="Path_912" d="M363.552 519.594h-.325l-2.7-6.664h.905l1.371 3.346c.212.534.438 1.1.608 1.659h.028c.184-.563.4-1.1.622-1.659l1.343-3.346h.849z" class="cls-1" data-name="Path 912" transform="translate(-1418.776 -857.275)"/>
        <path id="Path_913" d="M387.717 504.185c-.212 0-.594-.461-.594-.692s.382-.707.594-.707.608.462.608.707-.4.692-.608.692m-.452 1.27h.9v6.535h-.9z" class="cls-1" data-name="Path 913" transform="translate(-1438.376 -849.8)"/>
        <path id="Path_914" d="M402.675 519.061v-4.313a1.56 1.56 0 0 0-1.767-1.573 1.632 1.632 0 0 0-1.824 1.573v4.313h-.891v-6.535H399l.028.793a2.325 2.325 0 0 1 2.093-.937 2.238 2.238 0 0 1 2.446 2.279v4.4z" class="cls-1" data-name="Path 914" transform="translate(-1446.533 -856.871)"/>
        <path id="Path_915" d="M425.428 522.352c-1.7 0-2.842-.967-2.842-2.25a2.034 2.034 0 0 1 1.513-1.991l-.764-.707a1.28 1.28 0 0 1 .891-1.039 2.1 2.1 0 0 1-1.173-1.861 2.179 2.179 0 0 1 2.347-2.164 2.914 2.914 0 0 1 .806.116 2.586 2.586 0 0 0 .792.1 2.121 2.121 0 0 0 .976-.231l.184.75a2.193 2.193 0 0 1-.877.2 1.787 1.787 0 0 1 .466 1.226 2.2 2.2 0 0 1-2.347 2.178c-.707 0-1.1.231-1.1.5a1.159 1.159 0 0 0 .579.462l1.654.577c1.088.375 1.711.967 1.711 2.048 0 1.183-1.146 2.078-2.814 2.078m.834-3.347l-1.287-.4a1.511 1.511 0 0 0-1.584 1.5c0 .764.735 1.5 2.022 1.5 1.258 0 1.979-.678 1.979-1.327 0-.62-.41-1.039-1.131-1.269m-.848-5.9a1.409 1.409 0 1 0 1.5 1.4 1.452 1.452 0 0 0-1.5-1.4" class="cls-1" data-name="Path 915" transform="translate(-1464.508 -856.83)"/>
        <g id="Group_54" data-name="Group 54" transform="translate(-1112.584 -414.337)">
            <path id="Path_916" d="M357.1 353.259l-12.58 12.584h12.58z" class="cls-2" data-name="Path 916" transform="translate(-294.397 -325.277)"/>
            <path id="Path_917" d="M342.323 363.774l12.642-12.642h-12.642z" class="cls-2" data-name="Path 917" transform="translate(-292.779 -323.709)"/>
            <path id="Path_918" d="M357.1 300.352l-12.58 12.584h12.58z" class="cls-2" data-name="Path 918" transform="translate(-294.397 -286.289)"/>
            <path id="Path_919" d="M342.323 310.867l12.642-12.642h-12.642z" class="cls-2" data-name="Path 919" transform="translate(-292.779 -284.722)"/>
            <path id="Path_920" d="M357.1 416.692l-12.58-12.584h12.58z" class="cls-2" data-name="Path 920" transform="translate(-294.397 -362.747)"/>
            <path id="Path_921" d="M357.047 246.9l-12.584 12.584h12.584z" class="cls-2" data-name="Path 921" transform="translate(-294.355 -246.904)"/>
            <path id="Path_922" d="M257.991 416.586L270.575 404h-12.584z" class="cls-2" data-name="Path 922" transform="translate(-230.634 -362.669)"/>
            <path id="Path_923" d="M272.576 363.61l-12.584-12.584h12.584z" class="cls-2" data-name="Path 923" transform="translate(-232.109 -323.631)"/>
            <path id="Path_924" d="M207.037 299.133l12.584 12.584v-12.584z" class="cls-3" data-name="Path 924" transform="translate(-193.086 -285.391)"/>
            <path id="Path_926" d="M257.991 353l12.642 12.642h-12.642z" class="cls-2" data-name="Path 926" transform="translate(-230.634 -325.086)"/>
            <path id="Path_927" d="M257.991 300.113l12.584 12.587h-12.584z" class="cls-2" data-name="Path 927" transform="translate(-230.634 -286.113)"/>
            <path id="Path_928" d="M205.015 405.975l12.642 12.642h-12.642z" class="cls-2" data-name="Path 928" transform="translate(-191.597 -364.123)"/>
            <path id="Path_929" d="M166.656 416.644L154.014 404h12.642z" class="cls-2" data-name="Path 929" transform="translate(-154.014 -362.669)"/>
            <path id="Path_930" d="M205.015 363.669l12.642-12.642h-12.642z" class="cls-2" data-name="Path 930" transform="translate(-191.597 -323.631)"/>
            <path id="Path_931" d="M166.656 353l-12.642 12.642h12.642z" class="cls-2" data-name="Path 931" transform="translate(-154.014 -325.086)"/>
            <path id="Path_949" d="M0 0l12.584 12.584V0z" class="cls-3" data-name="Path 949" transform="rotate(180 38.246 27.109)"/>
        </g>
    </g>
</svg>
