<svg xmlns="http://www.w3.org/2000/svg" width="116.603" height="71.338" viewBox="0 0 116.603 71.338">
    <defs>
        <style>
            .cls-2{fill:#1c4b43}.cls-3{fill:none;stroke:#1c4b43;stroke-width:3px}
        </style>
    </defs>
    <g id="Group_489" transform="translate(-578 -1629)">
        <g id="Group_488" transform="translate(-9 11)">
            <g id="carro-ecologico" transform="translate(585 1602.413)">
                <path id="Path_1273" fill="#6ad34d" d="M4.052 42.128l18.238-23.8h6.492l-19.9 26.79v28.335l-3.435-2.629-2.479-7.461z"/>
                <path id="Path_1241" d="M110.094 75.178h-3.185v-3.332h3.183a5.184 5.184 0 0 0 5.179-5.179V51.842a6.285 6.285 0 0 0-5.407-6.187l-18.413-2.541L71.3 19.815a2.539 2.539 0 0 0-1.957-.9H24.2a2.5 2.5 0 0 0-2.041 1.021L5.332 42.614v24.053a5.184 5.184 0 0 0 5.177 5.179h3.218v3.332h-3.218A8.52 8.52 0 0 1 2 66.667V41.514l17.472-23.543a5.83 5.83 0 0 1 4.728-2.384h45.14a5.888 5.888 0 0 1 4.479 2.052l19.323 22.346 17.176 2.377a9.63 9.63 0 0 1 8.282 9.488v14.826a8.52 8.52 0 0 1-8.509 8.5z" class="cls-2"/>
                <path id="Path_1242" d="M23.5 49.361h44.968v3.332H23.5z" class="cls-2" transform="translate(14.316 22.485)"/>
                <path id="Path_1243" d="M63.231 69.4A13.749 13.749 0 1 1 76.99 55.65 13.749 13.749 0 0 1 63.231 69.4zm0-24.168a10.421 10.421 0 1 0 0-.007z" class="cls-2" transform="translate(31.618 17.521)"/>
                <path id="Path_1244" d="M60.647 60.33a7.268 7.268 0 1 1 7.263-7.266 7.268 7.268 0 0 1-7.263 7.266zm0-11.206a3.936 3.936 0 1 0 3.931 3.938 3.936 3.936 0 0 0-3.931-3.938z" class="cls-2" transform="translate(34.202 20.111)"/>
                <path id="Path_1245" d="M19.172 60.33a7.268 7.268 0 1 1 7.269-7.268 7.267 7.267 0 0 1-7.269 7.268zm0-11.206a3.936 3.936 0 1 0 3.938 3.937 3.936 3.936 0 0 0-3.938-3.937z" class="cls-2" transform="translate(6.595 20.111)"/>
                <path id="Path_1246" d="M21.762 69.4a13.749 13.749 0 1 1 13.751-13.75A13.749 13.749 0 0 1 21.762 69.4zm0-24.168a10.424 10.424 0 1 0 0-.007z" class="cls-2" transform="translate(4.005 17.521)"/>
            </g>
        </g>
        <path id="Path_1274" d="M600.671 1644.425h48.951" class="cls-3" transform="translate(-2 11)"/>
        <path id="Path_1275" d="M600.671 1644.425h3.753" class="cls-3" transform="translate(49 11)"/>
    </g>
</svg>
