<svg xmlns="http://www.w3.org/2000/svg" width="112.282" height="120.765" viewBox="0 0 112.282 120.765">
    <defs>
        <style>
            .cls-2{fill-rule:evenodd;fill:#6ad34d}.cls-3{fill:#1c4b43}
        </style>
    </defs>
    <g id="folha-de-cha" transform="rotate(-13 90.323 10.291)">
        <g id="Group_485" transform="translate(1.684 1.825)">
            <g id="Group_483">
                <path id="Path_1257" fill="#aae79a" fill-rule="evenodd" d="M36.575 395.41c10.6.498 1.239-10.54 0 0z" transform="translate(-36.575 -314.181)"/>
                <path id="Path_1260" d="M89.944 53.571a27.612 27.612 0 0 0 2.822-4.471c-24.7 6.941-31.057-22.79-30.555-39.323-.91-.275-1.773-.507-2.57-.687-2.191 14.27 2.529 52.464 30.303 44.481z" class="cls-2" transform="translate(-54.633 -9.09)"/>
                <path id="Path_1261" d="M37.462 324.748a33.617 33.617 0 0 0-.887 4.494c9.769.459 33.937-4.942 31.42-21.2-2.065 12.341-21.318 16.807-30.533 16.706z" class="cls-2" transform="translate(-36.575 -248.013)"/>
                <path id="Path_1262" d="M272.247 81.154a24.915 24.915 0 0 0 4.711 2.273c-6.135-18.836 10.885-29.7 25.292-33.767-15.363 1.931-38.376 10.847-30.003 31.494z" class="cls-2" transform="translate(-223.501 -41.514)"/>
                <path id="Path_1263" d="M227.6 282.874c-12.518 30.092 30.777 43.848 48.106 44.456-.049-1.391-.182-2.948-.4-4.631-17.399-1.399-54.091-13.861-47.706-39.825z" class="cls-2" transform="translate(-187.454 -227.899)"/>
            </g>
        </g>
        <g id="Group_486">
            <path id="Path_1265" d="M377.4 280.032l2.127-2.132c-.773-.771-1.556-1.486-2.328-2.125l-1.92 2.32c.699.58 1.413 1.232 2.121 1.937z" class="cls-3" transform="translate(-305.583 -220.4)"/>
            <path id="Path_1266" d="M119.628 101.2c-.331-9.425-4.794-29-15.365-41.4l-2.292 1.954c5.447 6.387 8.871 14.562 10.785 20.295a77.176 77.176 0 0 1 3.769 17.6c-12.315-.94-35.972-7.858-44.309-21.949-3.694-6.244-3.893-13.241-.6-20.821l32.608 32.608 2.13-2.13-32.609-32.609c7.991-3.47 15.327-3.057 21.831 1.241l1.66-2.513c-7.673-5.069-16.285-5.427-25.612-1.075l-1.331-1.777 8.491-7.314a21.315 21.315 0 0 0 10.49 3.023 17.814 17.814 0 0 0 7.86-1.862c6.939-3.371 11.741-10.635 14.548-16.135a59.3 59.3 0 0 0 6.018-18.57l.189-1.6-1.614-.076a59.289 59.289 0 0 0-19.3 2.9c-5.884 1.871-13.834 5.422-18.294 11.718-3.738 5.278-4.355 11.434-1.845 18.31l-8.347 7.19-1.431-1.908c4.63-6.48 5.771-13.107 3.382-19.714C67.589 18.7 60.275 12.67 54.642 9A64.615 64.615 0 0 0 35.21.356L33.635 0l-.245 1.6c-1 6.539-.58 18.079 2.723 27.963l2.857-.963a64.442 64.442 0 0 1-2.813-24.9c9.675 2.709 27.023 11.661 31.45 23.905 1.924 5.321 1.114 10.716-2.4 16.061l-19-27.891-2.489 1.7 19 27.893c-5.258 1.1-9.856.421-13.693-2.037-3.727-2.388-6.771-6.423-9.047-11.994l-2.788 1.139c2.515 6.156 5.95 10.662 10.21 13.391A19.279 19.279 0 0 0 58.011 48.9a26.743 26.743 0 0 0 6.578-.872l1.61 2.15-6.324 5.447c-5.138-2.84-10.121-3.123-14.826-.838-10.61 5.153-15.893 21.449-16.673 28.091l-.189 1.6 1.614.076c.353.017.734.025 1.14.025 7.3 0 22.84-2.77 29.3-11.887 3.026-4.272 3.558-9.24 1.588-14.78l6.181-5.324 1.4 1.868c-4.274 8.97-4.2 17.3.218 24.772 5.22 8.823 15.4 14.408 23.024 17.54a79.351 79.351 0 0 0 25.422 5.989l1.614.057zM81.136 24.446c6.827-9.638 24.117-13.311 33.328-13.382-1.574 9.076-8.02 25.535-18.644 30.7-4.571 2.221-9.465 2.033-14.572-.55l23.808-20.187-1.948-2.3L79.3 38.914c-1.714-5.461-1.1-10.32 1.837-14.467zM57.78 70.956c-3.145 4.441-8.965 7.013-13.293 8.389a47.777 47.777 0 0 1-12.862 2.222 47.79 47.79 0 0 1 4.292-12.327c2.064-4.045 5.552-9.367 10.447-11.745a11.571 11.571 0 0 1 5.11-1.2 13.756 13.756 0 0 1 5.926 1.441L42.125 70.687l1.948 2.3 15.27-12.95a12.21 12.21 0 0 1-1.563 10.919z" class="cls-3" transform="translate(-28.187)"/>
        </g>
    </g>
</svg>
