<svg xmlns="http://www.w3.org/2000/svg" id="localizacao" width="117.295" height="107.306" viewBox="0 0 117.295 107.306">
    <defs>
        <style>
            .cls-1{fill:#6ad34d}.cls-2{fill:#1c4b43}
        </style>
    </defs>
    <path id="Path_1267" d="M143.629 40.692q-1.794-.167-3.634-.17c-20.445 0-37.085 15.877-37.085 35.452 0 15.913 12.405 30.552 22.865 40.07A118.485 118.485 0 0 0 140 127.2s1.392-.891 3.634-2.523a127.44 127.44 0 0 1-10.586-8.629c-10.46-9.518-22.865-24.157-22.865-40.07 0-18.4 14.7-33.534 33.452-35.283z" class="cls-1" transform="translate(-81.348 -39.067)"/>
    <g id="Group_487" transform="translate(26.429 9.258)">
        <path id="Path_1268" d="M196.249 106.243a19.1 19.1 0 1 0 19.1 19.1 19.1 19.1 0 0 0-19.1-19.1zm0 35.3a16.195 16.195 0 1 1 16.195-16.194 16.195 16.195 0 0 1-16.195 16.194z" class="cls-2" transform="translate(-164.031 -98.126)"/>
        <path id="Path_1269" d="M197.393 75.479l-.963-2.743a32.915 32.915 0 0 0-4.442 1.938l1.357 2.571a29.915 29.915 0 0 1 4.048-1.766z" class="cls-2" transform="translate(-175.276 -72.736)"/>
        <path id="Path_1270" d="M136.142 89.77A30.6 30.6 0 0 0 123 114.636h2.907a27.694 27.694 0 0 1 11.911-22.491z" class="cls-2" transform="translate(-123 -85.644)"/>
    </g>
    <path id="Path_1271" d="M117.97 351.492c-7.865-2.563-18.912-4.416-31.105-5.216l-.19 2.9c11.959.785 22.753 2.589 30.395 5.079 7.025 2.289 11.217 5.16 11.217 7.681 0 3.648-8.089 7.022-15.659 8.963-10.688 2.742-24.922 4.251-40.081 4.251s-29.392-1.509-40.081-4.25c-7.57-1.942-15.659-5.316-15.659-8.963 0-2.522 4.2-5.4 11.234-7.686 7.653-2.492 18.461-4.295 30.433-5.077l-.19-2.9c-12.207.8-23.267 2.649-31.143 5.214-8.786 2.859-13.242 6.376-13.242 10.45 0 10.471 30.216 16.121 58.647 16.121s58.647-5.65 58.647-16.121c0-4.071-4.45-7.585-13.224-10.445z" class="cls-1" transform="translate(-13.9 -270.752)"/>
    <path id="Path_1272" d="M135.449 34.517c-21.25 0-38.538 16.556-38.538 36.907 0 6.532 2.014 13.372 5.986 20.332a81.528 81.528 0 0 0 12.977 16.62 121.5 121.5 0 0 0 18.793 15.5 1.453 1.453 0 0 0 1.566 0 121.5 121.5 0 0 0 18.793-15.5A81.469 81.469 0 0 0 168 91.756c3.972-6.96 5.986-13.8 5.986-20.332.002-20.351-17.286-36.907-38.537-36.907zM153 106.29a123.234 123.234 0 0 1-17.551 14.61 123.036 123.036 0 0 1-17.509-14.571c-8.267-8.352-18.122-21.188-18.122-34.907 0-18.748 15.985-34 35.632-34s35.632 15.252 35.632 34c-.001 13.705-9.834 26.526-18.082 34.868z" class="cls-2" transform="translate(-76.802 -34.517)"/>
</svg>
