<svg xmlns="http://www.w3.org/2000/svg" width="163.436" height="72.573" viewBox="0 0 163.436 72.573">
    <defs>
        <style>
            .cls-1{fill:#2c3e4a}
        </style>
    </defs>
    <g id="Group_218" data-name="Group 218" transform="translate(-105.804 -366)">
        <g id="Group_49" data-name="Group 49" transform="translate(40.62 306.849)">
            <path id="Path_898" d="M102.466 116.046a5.957 5.957 0 0 1 0 11.909 5.945 5.945 0 0 1-5.9-5.982 5.882 5.882 0 0 1 5.9-5.927m-.055-3.769c-5.845 0-10.269 4.124-10.269 9.7 0 5.545 4.424 9.751 10.269 9.751s10.27-4.234 10.27-9.751c0-5.549-4.425-9.7-10.27-9.7zm-13.137 19.256v-19.119h-4.316v19.119zM69.5 122.465v-6.474h3.987c2.376 0 3.742 1.066 3.742 3.2 0 2.185-1.366 3.278-3.742 3.278zm7.428 9.068h4.889l-4.069-6.31c2.321-1.092 3.578-3.223 3.578-6.172 0-4.234-2.841-6.637-7.839-6.637h-8.3v19.119H69.5v-5.463h4.4z" class="cls-1" data-name="Path 898"/>
            <path id="Path_899" d="M220.235 129.456v-17.042h-2.185v19.119h10.57v-2.077zM209.61 124.6h-8.576l4.261-9.7zm.928 2.1l2.131 4.835h2.376l-8.545-19.121h-2.267l-8.575 19.119h2.321l2.13-4.835zm-13.492-12.182v-2.1h-14.667v2.1h6.228v17.017h2.185v-17.019zm-17.862 17.017v-19.121H177v19.119zm-18.273-17.017h4.917c3.441 0 5.435 1.475 5.435 4.371 0 2.977-1.994 4.506-5.435 4.506h-4.917zm-2.184-2.1v19.119h2.184V125.5h5c4.725 0 7.456-2.43 7.456-6.664 0-4.069-2.731-6.418-7.456-6.418zm-8.44 12.181h-8.576l4.26-9.7zm.929 2.1l2.13 4.835h2.376l-8.549-19.119h-2.267l-8.576 19.119h2.322l2.13-4.835zm-22.97-14.339a9.646 9.646 0 1 0-.082 19.283 10.56 10.56 0 0 0 7.1-2.95l-1.338-1.5a8.34 8.34 0 0 1-5.654 2.294 7.542 7.542 0 1 1 0-15.076 8.033 8.033 0 0 1 5.654 2.4l1.311-1.666a10.335 10.335 0 0 0-6.991-2.786z" class="cls-1" data-name="Path 899"/>
            <path id="Path_900" fill="#2c3e4a" fill-rule="evenodd" d="M52.8 139.85l-7.665-13.189a10.992 10.992 0 0 0 6.6-10.627v-.1c0-7.05-4.655-11.421-12.473-11.758-.342-.015-.643-.022-.991-.022H19.888l4.092 7.089H37.6c3.826 0 6.172 1.734 6.172 5.1v.1c0 3.008-2.193 5.049-6.018 5.048H33.13q5.3 9.18 10.593 18.359z" data-name="Path 900" transform="translate(109 -45)"/>
            <path id="Path_901" fill="#ed7229" fill-rule="evenodd" d="M23.646 129.227H11.38l4.467-7.737h12.266l6.133 10.622-4.467 7.737z" data-name="Path 901" transform="translate(109 -45)"/>
        </g>
    </g>
</svg>
