<svg version="1" xmlns="http://www.w3.org/2000/svg" width="682.667" height="682.667" viewBox="0 0 512.000000 512.000000"><path d="M0 256v256h512V0H0v256zm394-118.5V173h-71.5l35.5-35.5c19.5-19.5 35.6-35.5 35.7-35.5.2 0 .3 16 .3 35.5zm-3 40.8c0 .1-16 16.2-35.5 35.7L320 249.5V178h35.5c19.5 0 35.5.1 35.5.3zm-204.5 1.8c.3.3.4 15.5.3 33.8l-.3 33.1-34-34.1-34-34.1 33.7.4c18.5.2 34 .6 34.3.9zm43.5 36.4l35.5 35.5H194v-35.5c0-19.5.1-35.5.3-35.5.1 0 16.2 16 35.7 35.5zm164 1V253h-71.5l35.5-35.5c19.5-19.5 35.6-35.5 35.7-35.5.2 0 .3 16 .3 35.5zm-207 39.3c0 .4-16 16.7-35.5 36.2L116 328.5V256h35.5c19.5 0 35.5.3 35.5.8zm81.8 34.9c.1 19.4-.1 35.3-.5 35.3-1 0-70.3-69.3-70.3-70.3 0-.4 15.9-.6 35.3-.5l35.2.3.3 35.2zM391 257.3c0 .1-16 16.2-35.5 35.7L320 328.5V257h35.5c19.5 0 35.5.1 35.5.3zm-279 38.2V331H39.5L75 295.5C94.5 276 110.8 260 111.2 260c.5 0 .8 16 .8 35.5zm119 0l35.5 35.5H194v-35.5c0-19.5.3-35.5.8-35.5.4 0 16.7 16 36.2 35.5zm163 0V331h-71.5l35.5-35.5c19.5-19.5 35.6-35.5 35.7-35.5.2 0 .3 16 .3 35.5zm-282.2 75.2c.1 19.4-.1 35.3-.5 35.3-.5 0-16.8-16-36.3-35.5L39.5 335l36 .2 36 .3.3 35.2zm153.2-35c0 1-69.3 70.3-70.2 70.3-1 0-1.1-69.4-.1-70.3.9-1 70.3-.9 70.3 0zm129 34.8c0 19.5-.1 35.5-.3 35.5-.1 0-16.2-16-35.7-35.5L322.5 335H394v35.5zm-242 4l35.5 35.5H116v-35.5c0-19.5.1-35.5.3-35.5.1 0 16.2 16 35.7 35.5zm293.5 8.4l27 27.1H405v-66.2l6.8 6c3.7 3.4 18.8 18.2 33.7 33.1z"/></svg>